<svg version="1.2" xmlns="http://www.w3.org/2000/svg" viewBox="0 0 647 647" width="647" height="647">
	<style>
		.s0 { fill: #3ab66b } 
		.s1 { fill: #3bb76c } 
		.s2 { fill: #3ab76c } 
		.s3 { fill: #42ab6b } 
		.s4 { fill: #e055cb } 
	</style>
	<path class="s0" d="m323 170c3.75 4.37 6.59 9.12 9.5 14.06q1.62 2.72 3.24 5.44c0.82 1.38 0.82 1.38 1.65 2.79q3.64 6.12 7.3 12.21 0.72 1.2 1.46 2.43 7.2 11.97 14.46 23.9 6.73 11.06 13.39 22.17 7.11 11.87 14.31 23.69 9.07 14.91 18.03 29.89 7.44 12.39 14.97 24.72c5.95 9.77 11.8 19.6 17.63 29.45 5 8.45 10 16.89 15.25 25.19 3.98 6.29 7.87 12.64 11.74 18.99q1.19 1.94 2.38 3.87 1.67 2.72 3.32 5.44c0.98 1.59 0.98 1.59 1.97 3.22 1.4 2.54 1.4 2.54 1.4 4.54-99.99 0-199.98 0-303 0 1.67-4.18 3.56-7.85 5.86-11.68q0.57-0.96 1.15-1.94 1.87-3.13 3.74-6.26 1.29-2.16 2.59-4.33 9.26-15.51 18.68-30.91 4.19-6.86 8.31-13.77c3.9-6.52 7.85-13 11.79-19.49q8.24-13.53 16.38-27.12 7.86-13.12 15.81-26.19 9.46-15.56 18.82-31.19 8.86-14.79 17.82-29.51 7.47-12.28 14.85-24.62c5.01-8.36 10.1-16.68 15.2-24.99z"/>
	<path class="s1" d="m445 100c3.21 1.07 3.7 1.58 5.69 4.13 2.87 3.49 6.05 6.32 9.49 9.24 2.24 2 3.97 4.27 5.82 6.63q2.44 2.07 5 4c-1.28 3.84-2.68 4.35-6.06 6.5q-1.64 1.06-3.33 2.16-0.89 0.57-1.8 1.15c-3.06 2.01-6.05 4.1-9.06 6.19-6.72 4.64-13.51 9.17-20.31 13.69q-14.2 9.43-28.13 19.26-1.35 0.94-2.73 1.92-1.18 0.83-2.4 1.69c-2 1.32-4 2.42-6.18 3.44 1.59-4.78 4.26-8.41 7.19-12.44q7.16-10 14.06-20.19c7.25-10.67 14.61-21.27 22-31.85q5.39-7.75 10.75-15.52z"/>
	<path class="s1" d="m136 209c6.31 2 12.41 4.33 18.49 6.92q1.33 0.57 2.71 1.15 4.34 1.83 8.68 3.68 3 1.27 6 2.55 26.59 11.28 53.12 22.7 0 0.49 0 1c-17.6 0.13-35.15-0.14-52.73-0.8q-5.64-0.21-11.27-0.4-3.66-0.13-7.31-0.26c-1.65-0.06-1.65-0.06-3.33-0.12-7.14-0.27-14.24-0.77-21.36-1.42 0.54-7.72 1.71-15.04 3.5-22.56 0.34-1.48 0.34-1.48 0.68-2.98 1.67-7.16 1.67-7.16 2.82-9.46z"/>
	<path class="s2" d="m200 100c3.34 1.11 3.65 1.55 5.46 4.37q0.69 1.06 1.41 2.15 0.74 1.16 1.51 2.35 1.62 2.5 3.25 4.99c0.84 1.28 0.84 1.28 1.7 2.59 2.59 3.95 5.25 7.84 7.92 11.74q0.79 1.15 1.6 2.33c5.14 7.49 10.34 14.93 15.53 22.38 4.12 5.92 8.19 11.86 12.14 17.89 1.46 2.24 1.46 2.24 3.18 4.39 1.3 1.82 1.3 1.82 1.3 3.82-4.4-1.5-7.87-3.89-11.56-6.63q-1.89-1.37-3.78-2.73-0.92-0.68-1.88-1.37c-3.42-2.44-6.93-4.73-10.44-7.04-4.84-3.21-9.61-6.51-14.4-9.8q-7.28-4.99-14.58-9.94-0.84-0.57-1.71-1.16-4.19-2.84-8.37-5.68c-1.53-1.04-1.53-1.04-3.09-2.1q-1.35-0.91-2.74-1.86-3.28-2.27-6.45-4.69c1.58-3.86 4.06-6.29 7.01-9.2q0.72-0.72 1.47-1.47 2.32-2.29 4.64-4.58 1.58-1.56 3.16-3.13 3.85-3.81 7.72-7.62z"/>
	<path class="s2" d="m510 209c2.24 8.65 4.33 17.32 6.14 26.07 0.27 1.3 0.27 1.3 0.55 2.62q0.66 3.16 1.31 6.31c-77.86 3.27-77.86 3.27-98 3 2.94-1.96 5.71-3.26 8.94-4.65q1.81-0.78 3.67-1.59 1.98-0.85 3.95-1.7 2.05-0.88 4.09-1.76 14.28-6.15 28.61-12.18 8.76-3.69 17.48-7.47 1.94-0.84 3.89-1.69 2.84-1.22 5.67-2.46 2.59-1.14 5.2-2.26 1.48-0.65 3-1.31c2.5-0.93 2.5-0.93 5.5-0.93z"/>
	<path class="s2" d="m305 43c12.21 0 24.42 0 37 0q-5.15 28.04-10.69 56-1.09 5.55-2.19 11.1-0.67 3.4-1.34 6.81-0.31 1.54-0.62 3.13-0.29 1.47-0.6 2.99-0.58 3.07-1.08 6.15-0.25 1.49-0.51 3.03-0.21 1.34-0.42 2.72-0.27 1.02-0.55 2.07c-0.99 0.5-0.99 0.5-2 1q-2.22-12.38-4.43-24.76-1.04-5.75-2.07-11.5-5.26-29.37-10.5-58.74z"/>
	<path id="GO-KAPIT" class="s3" aria-label="GO-KAPIT"  d="m123 471.5v36.8h-28.9q-14.1 0-24.1-10-10-10-10-24.2 0-14 10-24 10.1-10.1 24.1-10.1h28.9v21h-28.9q-5.4 0-9.3 3.9-3.8 3.8-3.8 9.2 0 5.5 3.8 9.4 3.9 3.8 9.3 3.8h7.9v-15.8zm73.5 2.6q0 14.1-10.1 24.2-10 10-24 10-14.2 0-24.2-10-10-10-10-24.2 0-14 10-24 10.1-10.1 24.2-10.1 14 0 24 10.1 10.1 10 10.1 24zm-21 0q0-5.3-3.9-9.2-3.9-3.9-9.2-3.9-5.5 0-9.4 3.9-3.8 3.8-3.8 9.2 0 5.5 3.8 9.4 3.9 3.8 9.4 3.8 5.4 0 9.2-3.8 3.9-3.9 3.9-9.4zm63-5.2v10.5h-31.5v-10.5zm75.6 18.4v21h-14.7q-8.4 0-14.7-6.4l-14.7-14.6v21h-21v-47.3h-7.3v-21h28.3v26.8l17.9-26.8h24.1l-23.6 35.4 10 9.9q1.9 2 6.2 2zm55.7-47.3l23.1 68.3h-22.1l-2.8-8.4h-23.7l-2.9 8.4h-22l16-47.3h-23.4v-21zm-20.5 45.1h13.8l-6.9-20.3zm111.9-22.1q0 9.6-6.8 16.4-6.7 6.7-16.3 6.7h-18.9v22.1h-21v-47.3h-7.3v-21h47.2q9.6 0 16.3 6.9 6.8 6.7 6.8 16.2zm-21 0q0-5.2-6.3-5.2h-14.7v10.5h14.7q6.3 0 6.3-5.3z"/>
	<path id="GO-KAPIT" class="s4" aria-label="GO-KAPIT"  d="m493 440v68.3h-21v-47.3h-7.3v-21zm73.9 0v21h-21v47.3h-21v-47.3h-28.4v-21z"/>
</svg>